<?xml version="1.0" standalone="no"?><!DOCTYPE svg PUBLIC "-//W3C//DTD SVG 1.1//EN" "http://www.w3.org/Graphics/SVG/1.1/DTD/svg11.dtd"><svg t="1696612510332" class="icon" viewBox="0 0 1049 1024" version="1.1" xmlns="http://www.w3.org/2000/svg" p-id="5024" xmlns:xlink="http://www.w3.org/1999/xlink" width="204.8828125" height="200"><path d="M941.606387 378.950157H166.555502v464.264858a6.615763 6.615763 0 1 1-13.231527 0v-551.026853c0-51.962564 38.455738-94.238066 85.703817-94.238067h630.046083c47.248079 0 85.703818 42.2669 85.703817 94.238067V843.249427a6.589954 6.589954 0 0 1-13.179908 0V378.950157z m0-14.10904v-72.652955c0-44.193988-32.571236-80.120423-72.532512-80.120423h-630.003067c-40.004291 0-72.523909 35.960847-72.523909 80.120423v72.644352h775.050885zM704.282003 18.988962V7.099514a6.85665 6.85665 0 1 1 13.704696 0v11.915257h14.315515a6.882459 6.882459 0 1 1 0 13.764917h-14.315515v14.418752a6.85665 6.85665 0 1 1-13.704696 0V32.771085H692.46138a6.882459 6.882459 0 1 1 0-13.764917h11.820623z m311.629129 312.850765v-13.162702a6.85665 6.85665 0 0 1 13.713299 0v13.162702h13.059466a6.882459 6.882459 0 0 1 0 13.764918h-13.059466v13.162702a6.85665 6.85665 0 1 1-13.713299 0v-13.162702h-13.059465a6.882459 6.882459 0 0 1 0-13.764918h13.059465zM77.281409 217.969447v-11.915257a6.85665 6.85665 0 0 1 13.713299 0v11.915257h13.059465a6.882459 6.882459 0 1 1 0 13.764918h-13.059465v14.418751a6.85665 6.85665 0 1 1-13.713299 0V231.742968H64.221943a6.882459 6.882459 0 0 1 0-13.764918h13.059466z m63.748774 746.634934a130.594655 130.594655 0 0 0-0.120443 0.034412l-1.299064-6.1598a145.52959 145.52959 0 0 1 108.175045 14.418751 130.353769 130.353769 0 0 1 31.263569 25.146783 70.717264 70.717264 0 0 1 46.568436-9.833312 58.397662 58.397662 0 0 1 42.103442 27.856751l-11.011934 7.785782h-0.172062a45.467243 45.467243 0 0 0-32.760503-21.567905 58.414869 58.414869 0 0 0-42.361534 10.9173l-2.623937-4.361758h-1.496935v-0.086031a125.174718 125.174718 0 0 0-31.074301-25.095165 140.918343 140.918343 0 0 0-104.062777-13.721902l-1.135605-5.333906z m343.873448 25.662968l-2.236799 1.574363c-31.710929-51.97977-102.694888-62.733611-158.812736-25.009135l0.481772 0.602215h-1.367888l-1.385095 0.963544-0.593612-0.963544h-14.427354a280.580637 280.580637 0 0 0-69.856957-56.849109c-69.048267-39.909658-152.085132-50.878576-233.771314-30.971064L0 865.849701c84.791892-20.673185 171.089321-9.076242 242.942191 32.313144a292.117358 292.117358 0 0 1 71.852869 58.105158c58.638549-40.804377 132.530346-32.597045 171.347413 16.922245 87.94922-74.992991 204.245566-78.201937 263.925087-5.583394 81.565739-66.914705 182.72928-90.538745 271.082844-64.910189h-0.034412v14.659637c-84.628433-26.007091-182.264714-3.991826-261.318356 60.049452h-21.180767l1.127003-1.006559c-57.038377-68.764366-170.573137-62.045366-253.747651 15.175821h-0.043015l-1.049575-1.290461z m392.644271-46.413581l-1.290461 14.040216c-29.542954-1.101193-64.43702 14.66824-92.310978 45.01128l-9.37735-9.945153c30.712972-33.465956 69.512833-50.577469 102.978789-49.106343z m-372.229178-654.091673h346.196278a7.05452 7.05452 0 1 1 0 14.10904H505.275709a7.037314 7.037314 0 0 1-7.037314-7.05452 7.080329 7.080329 0 0 1 7.080329-7.05452zM418.832027 618.3995c0-20.062367 13.962788-36.287764 31.160332-36.287764 17.206147 0 31.168935 16.268412 31.168935 36.287764 0 20.027955-13.962788 36.296367-31.168935 36.296367s-31.160332-16.234-31.160332-36.296367z m210.663459 0c0-19.890306 13.962788-36.287764 31.160332-36.287764 17.206147 0 31.168935 16.268412 31.168935 36.287764 0 20.027955-13.962788 36.296367-31.168935 36.296367s-31.160332-16.225396-31.160332-36.296367zM434.40359 804.449566l-9.334335-9.996771c72.067946-77.221187 188.57937-77.978258 259.726787-1.686203l-9.334335 10.005375c-65.959764-70.794691-174.143412-70.037621-241.058117 1.677599z m-196.75229-486.434978a31.134523 31.134523 0 0 1-30.213993-17.825568 31.375409 31.375409 0 0 1 5.40273-34.76502 31.065698 31.065698 0 0 1 34.188614-7.72556 31.280775 31.280775 0 0 1 19.709641 29.104198 30.170979 30.170979 0 0 1-29.078388 31.21195z m0-49.682749a18.41918 18.41918 0 0 0-17.911598 10.49575 18.582639 18.582639 0 0 0 3.140121 20.578551c5.161844 5.566189 13.179908 7.398643 20.217223 4.628454a18.522417 18.522417 0 0 0 11.717386-17.197544 17.920202 17.920202 0 0 0-17.163132-18.505211z m83.484225 49.682749a31.12592 31.12592 0 0 1-30.196788-17.834171 31.366806 31.366806 0 0 1 5.419937-34.756417 31.057095 31.057095 0 0 1 34.171407-7.72556 31.280775 31.280775 0 0 1 19.726848 29.078388 30.205391 30.205391 0 0 1-29.121404 31.23776z m0-49.74297a18.444989 18.444989 0 0 0-17.894393 10.573177 18.582639 18.582639 0 0 0 3.21755 20.595758 18.401974 18.401974 0 0 0 20.251635 4.559628 18.53102 18.53102 0 0 0 11.67437-17.231956 17.928805 17.928805 0 0 0-17.249162-18.496607z m82.305604 49.74297a31.143126 31.143126 0 0 1-30.222597-17.816965 31.392615 31.392615 0 0 1 5.411333-34.773623 31.057095 31.057095 0 0 1 34.188614-7.716957 31.280775 31.280775 0 0 1 19.709641 29.095595 30.170979 30.170979 0 0 1-29.078388 31.21195z m0-49.682749a18.436386 18.436386 0 0 0-17.920202 10.49575 18.582639 18.582639 0 0 0 3.157328 20.595757c5.161844 5.566189 13.197115 7.39004 20.234428 4.602645a18.505211 18.505211 0 0 0 11.682974-17.223353 17.911599 17.911599 0 0 0-17.154528-18.625654v0.154855z" fill="#CCCCCC" p-id="5025"></path></svg>