<?xml version="1.0" standalone="no"?><!DOCTYPE svg PUBLIC "-//W3C//DTD SVG 1.1//EN" "http://www.w3.org/Graphics/SVG/1.1/DTD/svg11.dtd"><svg t="1696509850059" class="icon" viewBox="0 0 1024 1024" version="1.1" xmlns="http://www.w3.org/2000/svg" p-id="4396" xmlns:xlink="http://www.w3.org/1999/xlink" width="200" height="200"><path d="M300.032 188.992c91.328-56 185.984-73.664 283.968-52.992 97.984 20.672 177.344 74.688 238.08 161.984l17.92 31.04v0.96a19.776 19.776 0 0 1 0.576 14.528 27.2 27.2 0 0 1-8.512 12.48L480 585.024a21.888 21.888 0 0 1-16 3.456 20.096 20.096 0 0 1-12.992-8.512l-18.048-27.968a54.016 54.016 0 0 1 16-75.008l225.024-147.008a19.328 19.328 0 0 0 9.472-12.992 21.888 21.888 0 0 0-3.456-16 9.6 9.6 0 0 0-4.032-4.992 267.712 267.712 0 0 0-154.496-60.032c-56.96-3.328-110.528 11.008-160.512 43.008-62.72 43.328-101.504 100.032-116.48 170.048-15.04 70.016-2.56 137.344 37.504 201.984 42.624 62.016 98.816 100.48 168.512 115.52 69.632 14.976 136.832 2.496 201.472-37.504a53.184 53.184 0 0 1 40.96-7.04 56 56 0 0 1 34.048 24l18.048 26.048a23.68 23.68 0 0 1 2.496 15.488 21.504 21.504 0 0 1-7.488 12.48 153.408 153.408 0 0 1-28.992 20.992c-91.328 56-186.048 73.664-284.032 52.992-97.984-20.672-177.28-75.008-238.016-163.008-56-91.328-73.472-185.984-52.48-283.968 20.992-98.048 75.52-177.344 163.456-238.08z m526.016 305.024a24.768 24.768 0 0 1 16-2.56c5.312 1.024 9.6 3.84 12.992 8.576l23.04 35.008c9.28 15.36 12.288 31.168 8.96 47.488a65.408 65.408 0 0 1-27.008 40.512l-36.032 23.04a17.536 17.536 0 0 1-14.976 2.944 26.752 26.752 0 0 1-14.08-8.96l-45.952-71.04a20.16 20.16 0 0 1-3.008-16 22.08 22.08 0 0 1 8.96-12.992l71.04-46.08z" fill="#cdcdcd" p-id="4397"></path></svg>